<svg id="Group_12309" data-name="Group 12309" xmlns="http://www.w3.org/2000/svg" width="34.093" height="26.382" viewBox="0 0 34.093 26.382">
  <path id="Union_37" data-name="Union 37" d="M5.054,26.382,0,10.7.85,7.879H8.067L12.625,0l2.6,1.5L11.536,7.88c1.746,0,9.683.011,9.658,0h1.362L18.865,1.5l2.6-1.5,4.558,7.879h7.218l.85,3.208-5.054,15.3ZM7.33,23.413H26.762l4.266-12.564H3.065Zm15.887-5.076H21.542V14.931h1.571c.055,0,.111-.008.167-.008s.112,0,.167.008h1.5v1.291a1.716,1.716,0,0,1,0,.817v1.3h-1.6c-.021,0-.042,0-.063,0S23.238,18.339,23.217,18.337Zm-14.084,0V14.931h1.374a1.829,1.829,0,0,1,.3-.038,1.741,1.741,0,0,1,.422.038h1.3v1.26a1.716,1.716,0,0,1,0,.82v1.326Z" transform="translate(0 0)" fill="#14161a"/>
</svg>
